<svg width="50" height="50" viewBox="0 0 50 50" fill="none" xmlns="http://www.w3.org/2000/svg">
<g clip-path="url(#clip0_112_234)">
<path d="M49.3891 46.445L36.9537 34.0096C40.3425 29.865 42.0087 24.5764 41.6076 19.2378C41.2064 13.8992 38.7687 8.91903 34.7987 5.32734C30.8286 1.73565 25.6299 -0.19272 20.278 -0.0589035C14.926 0.0749128 9.83018 2.26068 6.04457 6.04628C2.25897 9.83189 0.0732038 14.9277 -0.0606124 20.2797C-0.194429 25.6317 1.73394 30.8303 5.32563 34.8004C8.91732 38.7705 13.8975 41.2082 19.2361 41.6093C24.5747 42.0104 29.8633 40.3442 34.0079 36.9554L46.4433 49.3908C46.8362 49.7703 47.3625 49.9803 47.9087 49.9756C48.455 49.9708 48.9775 49.7517 49.3638 49.3655C49.75 48.9792 49.9691 48.4567 49.9739 47.9104C49.9786 47.3642 49.7686 46.8379 49.3891 46.445ZM20.8329 37.5013C17.5365 37.5013 14.3142 36.5238 11.5734 34.6924C8.83256 32.8611 6.69635 30.2581 5.43489 27.2126C4.17343 24.1672 3.84337 20.8161 4.48646 17.5831C5.12954 14.3501 6.71689 11.3804 9.04777 9.04948C11.3786 6.7186 14.3484 5.13125 17.5814 4.48817C20.8144 3.84508 24.1655 4.17513 27.2109 5.4366C30.2564 6.69806 32.8594 8.83426 34.6907 11.5751C36.5221 14.3159 37.4995 17.5382 37.4995 20.8346C37.4946 25.2533 35.737 29.4897 32.6125 32.6142C29.488 35.7388 25.2516 37.4963 20.8329 37.5013Z" fill="black"/>
</g>
<defs>
<clipPath id="clip0_112_234">
<rect width="50" height="50" fill="white"/>
</clipPath>
</defs>
</svg>
