<svg width="132" height="132" viewBox="0 0 132 132" fill="none" xmlns="http://www.w3.org/2000/svg">
<g clip-path="url(#clip0_446_1003)">
<path d="M57.7491 93.4996C56.3028 93.5008 54.8705 93.2167 53.5341 92.6637C52.1978 92.1106 50.9836 91.2995 49.9611 90.2766L29.1491 69.9321C28.1061 68.911 27.5115 67.5175 27.496 66.058C27.4805 64.5985 28.0455 63.1926 29.0666 62.1496C30.0877 61.1067 31.4812 60.512 32.9407 60.4966C34.4002 60.4811 35.8061 61.046 36.8491 62.0671L57.7106 82.4556L95.1436 45.6056C96.1992 44.6768 97.5704 44.1876 98.9756 44.2384C100.381 44.2892 101.713 44.8762 102.699 45.8789C103.685 46.8815 104.249 48.2236 104.276 49.6294C104.303 51.0352 103.79 52.398 102.844 53.4376L65.4821 90.3261C64.4651 91.3376 63.2586 92.1385 61.9317 92.6831C60.6047 93.2277 59.1834 93.5051 57.7491 93.4996ZM131.999 104.5V67.8696C132.204 50.9156 125.988 34.5115 114.599 21.9511C103.21 9.39059 87.4903 1.60363 70.5971 0.153624C61.1682 -0.506059 51.7075 0.867192 42.8553 4.18046C34.003 7.49374 25.9657 12.6697 19.2871 19.3582C12.6085 26.0468 7.44443 34.0917 4.14428 42.9489C0.844137 51.806 -0.515088 61.2687 0.158572 70.6966C2.58957 105.644 33.4501 132 71.9556 132H104.499C111.79 131.991 118.78 129.091 123.935 123.935C129.09 118.78 131.99 111.79 131.999 104.5ZM69.8491 11.1316C83.9646 12.3803 97.0846 18.9246 106.573 29.4497C116.062 39.9747 121.215 53.7006 120.999 67.8696V104.5C120.999 108.876 119.261 113.073 116.166 116.167C113.072 119.261 108.875 121 104.499 121H71.9556C38.7686 121 13.1991 99.5496 11.1366 69.9376C10.5951 62.3948 11.6149 54.8214 14.1323 47.6905C16.6497 40.5596 20.6106 34.0244 25.7675 28.4933C30.9244 22.9622 37.1666 18.5539 44.1039 15.544C51.0413 12.534 58.5249 10.987 66.0871 10.9996C67.3356 10.9996 68.5951 11.0491 69.8491 11.1316Z" fill="#4E9F3D"/>
</g>
<defs>
<clipPath id="clip0_446_1003">
<rect width="132" height="132" fill="white"/>
</clipPath>
</defs>
</svg>
